<svg width="76" height="26" xmlns="http://www.w3.org/2000/svg"><path d="M52.95 23.443c-.571 0-.913-.601-.913-1.183v-2.589H76v2.59c0 .58-.341 1.182-.912 1.182H52.95zM45.752 26l.003-26h2.52c.584 0 1.188.34 1.188.908v22.285c0 .352-.077.524-.358.805-.482.478-1.744 1.73-1.789 1.772-.21.177-.37.23-.71.23h-.854zM7.832 14.307a7.151 7.151 0 0 1-5.08-2.095A7.09 7.09 0 0 1 .647 7.154C.647 3.209 3.87 0 7.832 0c1.92 0 3.725.744 5.082 2.095a7.089 7.089 0 0 1 2.104 5.059c0 3.944-3.223 7.153-7.186 7.153zm0-10.557a3.416 3.416 0 0 0-3.419 3.404c0 .909.356 1.764 1.002 2.407a3.403 3.403 0 0 0 2.417.997 3.416 3.416 0 0 0 3.42-3.404c0-.91-.355-1.764-1.001-2.407a3.406 3.406 0 0 0-2.418-.997zM18.638 26l.002-26h2.52c.585 0 1.189.34 1.189.908v22.285c0 .352-.077.524-.359.805a896.46 896.46 0 0 1-1.788 1.772c-.21.177-.37.23-.71.23h-.854zM0 15.896h16.779v2.59c0 .58-.341 1.182-.913 1.182H9.603v3.525c0 .352-.077.524-.358.805-.482.478-1.744 1.73-1.789 1.773-.21.176-.37.228-.71.229h-.854v-6.332H.912c-.57 0-.912-.601-.912-1.183v-2.589zm70.19-5.616a848.61 848.61 0 0 1-1.78 1.764c-.209.176-.368.227-.707.228h7.263v2.519c0 .58-.341 1.182-.913 1.182h-20.07c-.57 0-.912-.601-.912-1.182v-2.519h4.468V6.488c0-.35.076-.522.356-.8.48-.477 1.734-1.723 1.78-1.765.209-.176.368-.227.707-.228h-6.398c-.572 0-.913-.602-.913-1.183V0h21.895v2.512c0 .581-.341 1.183-.913 1.183h-3.507V9.48c0 .35-.076.521-.356.8zM42.708 0c.584 0 1.188.34 1.188.909v22.284c0 .352-.077.524-.358.805-.482.478-1.743 1.73-1.789 1.773-.21.176-.37.228-.71.229h-.854l.001-14.32h-2.782v7.988h-6.551c-.584-.002-.857-.09-1.218-.393-.078-.073-2.24-2.219-3.065-3.039-.482-.48-.614-.776-.614-1.379V0h6.552c.584.002.857.09 1.218.393.077.073 2.239 2.219 3.065 3.039.481.48.613.776.613 1.379v3.177h2.783V0h2.521zM29.667 15.973h4.027l-.002-12.278h-4.025v12.278zm31.565-3.7h5.62V3.694h-5.62v8.577z" fill="#DDD"/></svg>